<svg xmlns="http://www.w3.org/2000/svg" width="41.641" height="32" viewBox="0 0 41.641 32">
  <path id="Icon_awesome-youtube" data-name="Icon awesome-youtube" d="M41.82,9.507a5.5,5.5,0,0,0-3.681-4.05C34.892,4.5,21.87,4.5,21.87,4.5S8.849,4.5,5.6,5.457A5.5,5.5,0,0,0,1.92,9.507c-.87,3.572-.87,11.025-.87,11.025s0,7.453.87,11.025A5.409,5.409,0,0,0,5.6,35.543c3.247.957,16.269.957,16.269.957s13.021,0,16.269-.957a5.409,5.409,0,0,0,3.681-3.985c.87-3.572.87-11.025.87-11.025s0-7.453-.87-11.025ZM17.612,27.3V13.765l10.883,6.767L17.612,27.3Z" transform="translate(-1.05 -4.5)" fill="#fff"/>
</svg>
